# xmcd
#
# Track frame offsets:
#	150
#	11287
#	22520
#	34962
#	50205
#	62825
#	75060
#	88512
#	100075
#	112045
#	125855
#	137185
#	148142
#	159930
#	172060
#
# Disc length: 2444 seconds
#
# Revision: 1
# Processed by: cddbd v1.5.2PL0 Copyright (c) Steve Scherf et al.
# Submitted via: audiograbber 1.83.01
#
DISCID=c2098a0f
DTITLE=Various Artist - Living The Blues  Classics 1950-1952  CD2
DYEAR=1998
DGENRE=Blues
TTITLE0=Wynonie Harris  - Lovin' Machine
TTITLE1=Peppermint Harris With The Maxwell Davis Orchestra  - I Got Loaded
TTITLE2=Tiny Bradshaw - I'm Going To Have Myself A Ball
TTITLE3=Big Joe Turner - Chains Of Love
TTITLE4=Little Esther with the Robins and Johnny Otis Orchestra  - Double Crossin
TTITLE4=g Blues
TTITLE5=Marie Adams - I'm Gonna Play The Honky Tonks
TTITLE6=Floyd Dixon - Call Operator 210
TTITLE7=Professor Longhair (Roy Byrd)  - Bald Head
TTITLE8=Joe Williams - Every Day I Have The Blues
TTITLE9=Joe Morris and His Orchestra - Anytime, Any Place, Anywhere
TTITLE10=Roy Milton and His Solid Senders - Oh Babe
TTITLE11=Amos Milburn - Thinking and Drinking
TTITLE12=Johnny Otis - Deceiving Blues
TTITLE13=Lightnin' Hopkins  - Shotgun Blues
TTITLE14=Archibald - Stack-A 'Lee Pts. 1 and 2
EXTD=Time Life Music
EXTT0=
EXTT1=
EXTT2=
EXTT3=
EXTT4=
EXTT5=
EXTT6=
EXTT7=
EXTT8=
EXTT9=
EXTT10=
EXTT11=
EXTT12=
EXTT13=
EXTT14=
PLAYORDER=
